<!-- The Sleuth mark, from https://app.skills.new/favicon-production.svg with the
     original's color-scheme-adaptive fill fixed to brand blue (a static PNG can't
     adapt). Source of truth for the shipped PNGs; regenerate them with:
       for s in 16 32 48 128; do
         magick -background none -density 1200 icon.svg -resize ${s}x${s} icon-$s.png
         magick icon-$s.png -depth 8 icon-$s.png
       done -->
<svg viewBox="0 0 44 44" xmlns="http://www.w3.org/2000/svg">
  <path
    d="M10.872 25.1819C10.5056 24.067 10.3003 22.8784 10.3003 21.6414C10.3003 17.8923 12.1275 14.5787 14.9307 12.5145L10.0047 3.39886C3.99118 7.24335 0 13.9741 0 21.6408C0 24.5946 0.593992 27.409 1.66541 29.9746L10.872 25.1819ZM21.6408 32.9813C23.0357 32.9813 24.3654 32.7175 25.5997 32.2568L30.5256 41.3725C27.8144 42.5956 24.8082 43.2816 21.6408 43.2816C14.7773 43.2816 8.66503 40.083 4.70062 35.0996L13.3445 29.3549C15.4148 31.5808 18.3613 32.9813 21.6408 32.9813ZM21.6408 10.3003C20.2459 10.3003 18.9157 10.5641 17.6814 11.0248L12.756 1.90914C15.4672 0.686576 18.4734 0 21.6408 0C29.259 0 35.9524 3.93987 39.8086 9.88982L30.6477 14.77C28.5763 12.0578 25.3174 10.3003 21.6408 10.3003ZM32.9813 21.6408C32.9813 20.0133 32.6322 18.469 32.0148 17.0696L40.7116 11.4074C42.3502 14.4544 43.2816 17.9386 43.2816 21.6403C43.2816 29.3075 39.2905 36.0383 33.2769 39.8822L28.3515 30.7677C31.1547 28.7035 32.9813 25.3894 32.9813 21.6408ZM23.41 20.7094C22.9454 19.8165 21.845 19.4695 20.952 19.9341L13.9792 23.5645C13.8247 22.9476 13.7338 22.3056 13.7338 21.6408C13.7338 17.2737 17.2737 13.7332 21.6408 13.7332C26.0079 13.7332 29.5479 17.2737 29.5479 21.6408C29.5479 26.0079 26.0079 29.5479 21.6408 29.5479C19.5577 29.5479 17.668 28.7358 16.2559 27.4196L22.802 23.0686C23.5639 22.5583 23.8433 21.541 23.41 20.7094Z"
    fill="#094c78" />
</svg>
